<svg aria-hidden="true" style="position: absolute; width: 0; height: 0; overflow: hidden;" version="1.1"
     xmlns="http://www.w3.org/2000/svg" xmlns:xlink="http://www.w3.org/1999/xlink">
    <defs>
        <symbol id="icon-user" viewBox="0 0 24 32">
            <path d="M12 16c-6.625 0-12 5.375-12 12 0 2.211 1.789 4 4 4h16c2.211 0 4-1.789 4-4 0-6.625-5.375-12-12-12zM6 6c0-3.314 2.686-6 6-6s6 2.686 6 6c0 3.314-2.686 6-6 6s-6-2.686-6-6z"></path>
        </symbol>
        <symbol id="icon-cart" viewBox="0 0 32 32">
            <path d="M12 29c0 1.657-1.343 3-3 3s-3-1.343-3-3c0-1.657 1.343-3 3-3s3 1.343 3 3z"></path>
            <path d="M32 29c0 1.657-1.343 3-3 3s-3-1.343-3-3c0-1.657 1.343-3 3-3s3 1.343 3 3z"></path>
            <path d="M32 16v-12h-24c0-1.105-0.895-2-2-2h-6v2h4l1.502 12.877c-0.915 0.733-1.502 1.859-1.502 3.123 0 2.209 1.791 4 4 4h24v-2h-24c-1.105 0-2-0.895-2-2 0-0.007 0-0.014 0-0.020l26-3.98z"></path>
            <symbol id="icon-delete_sweep" viewBox="0 0 24 24">
                <path d="M14.016 5.016v1.969h-12v-1.969h3l0.984-1.031h3.984l1.031 1.031h3zM3 18v-9.984h9.984v9.984q0 0.797-0.586 1.406t-1.383 0.609h-6q-0.797 0-1.406-0.609t-0.609-1.406zM15 12h6v2.016h-6v-2.016zM15 8.016h6.984v1.969h-6.984v-1.969zM15 15.984h3.984v2.016h-3.984v-2.016z"></path>
            </symbol>
            <symbol id="icon-rating-star" viewBox="0 0 32 32">
                <path fill="#ffc52f" style="fill: var(--color1, #ffc52f)"
                      d="M7.036 20.308c0.025 0.025 0.050 0.076 0.025 0.101l-1.285 7.608c-0.176 1.033-0.025 1.889 0.403 2.419 0.302 0.353 0.731 0.529 1.26 0.529 0.504 0 1.108-0.176 1.738-0.504l6.827-3.603c0.025-0.025 0.076-0.025 0.126 0l6.827 3.577c0.63 0.328 1.209 0.504 1.713 0.504v0c0.529 0 0.957-0.176 1.26-0.529 0.428-0.504 0.579-1.36 0.378-2.419l-1.335-7.608c0-0.050 0-0.076 0.025-0.101l5.517-5.391c0.907-0.882 1.285-1.789 1.033-2.519-0.252-0.756-1.083-1.26-2.318-1.436l-7.634-1.083c-0.050 0-0.076-0.025-0.101-0.076l-3.426-6.903c-0.554-1.134-1.31-1.764-2.091-1.764s-1.512 0.63-2.091 1.764l-3.401 6.928c-0.025 0.025-0.050 0.050-0.101 0.076l-7.634 1.134c-1.26 0.176-2.066 0.705-2.318 1.436s0.126 1.612 1.008 2.494h0.025c0.025 0 0.025 0.025 0.050 0.050l5.517 5.316z"></path>
                <path fill="#ffc52f" style="fill: var(--color1, #ffc52f)"
                      d="M7.439 31.343c-0.453 0-0.882-0.126-1.209-0.378-0.756-0.554-1.033-1.612-0.806-3.023l1.26-7.482-5.442-5.265-0.176-0.176c-0.025-0.025-0.025-0.025-0.050-0.050-0.857-0.932-1.184-1.864-0.932-2.696 0.277-0.882 1.209-1.486 2.62-1.713l7.508-1.108 3.326-6.802c0.63-1.285 1.486-1.99 2.419-1.99v0c0.932 0 1.789 0.705 2.419 1.965l3.376 6.777 7.508 1.058c1.411 0.202 2.343 0.806 2.645 1.688s-0.101 1.915-1.134 2.922l-5.417 5.316 1.31 7.457c0.252 1.411-0.025 2.469-0.781 3.023s-1.864 0.504-3.124-0.176l-6.727-3.502-6.701 3.552c-0.68 0.428-1.31 0.605-1.889 0.605zM1.569 14.841l5.543 5.366c0.050 0.050 0.076 0.151 0.076 0.227l-1.285 7.608c-0.202 1.209 0 2.091 0.605 2.519s1.512 0.353 2.595-0.227l6.827-3.603c0.076-0.050 0.151-0.050 0.227 0l6.827 3.577c1.083 0.554 1.99 0.63 2.595 0.202 0.579-0.428 0.806-1.335 0.579-2.545l-1.335-7.608c-0.025-0.076 0-0.176 0.076-0.227l5.517-5.391c0.882-0.857 1.234-1.713 1.008-2.393-0.227-0.705-1.008-1.184-2.217-1.335l-7.634-1.083c-0.076 0-0.151-0.076-0.202-0.126l-3.426-6.903c-0.554-1.083-1.234-1.688-1.965-1.688v0c-0.731 0-1.436 0.605-1.965 1.713l-3.401 6.928c-0.025 0.076-0.101 0.126-0.202 0.126l-1.889 0.277-5.719 0.857c-1.209 0.176-1.99 0.655-2.217 1.36-0.227 0.68 0.126 1.537 0.983 2.368z"></path>
                <path fill="#ffc52f" style="fill: var(--color1, #ffc52f)"
                      d="M1.418 15.295c-0.050 0-0.126-0.025-0.176-0.076v0 0 0 0 0 0 0 0 0 0 0 0 0 0 0 0 0 0l-0.176-0.176c-0.101-0.101-0.101-0.252 0-0.353s0.252-0.101 0.353 0l0.176 0.176c0.101 0.101 0.101 0.252 0 0.353-0.050 0.050-0.126 0.076-0.176 0.076z"></path>
            </symbol>
        </symbol>
        <symbol id="icon-empty-rating-star" viewBox="0 0 32 32">
            <path fill="#ffc52f" style="fill: var(--color1, #dcdcdc)"
                  d="M7.036 20.308c0.025 0.025 0.050 0.076 0.025 0.101l-1.285 7.608c-0.176 1.033-0.025 1.889 0.403 2.419 0.302 0.353 0.731 0.529 1.26 0.529 0.504 0 1.108-0.176 1.738-0.504l6.827-3.603c0.025-0.025 0.076-0.025 0.126 0l6.827 3.577c0.63 0.328 1.209 0.504 1.713 0.504v0c0.529 0 0.957-0.176 1.26-0.529 0.428-0.504 0.579-1.36 0.378-2.419l-1.335-7.608c0-0.050 0-0.076 0.025-0.101l5.517-5.391c0.907-0.882 1.285-1.789 1.033-2.519-0.252-0.756-1.083-1.26-2.318-1.436l-7.634-1.083c-0.050 0-0.076-0.025-0.101-0.076l-3.426-6.903c-0.554-1.134-1.31-1.764-2.091-1.764s-1.512 0.63-2.091 1.764l-3.401 6.928c-0.025 0.025-0.050 0.050-0.101 0.076l-7.634 1.134c-1.26 0.176-2.066 0.705-2.318 1.436s0.126 1.612 1.008 2.494h0.025c0.025 0 0.025 0.025 0.050 0.050l5.517 5.316z"></path>
            <path fill="#ffc52f" style="fill: var(--color1, #dcdcdc)"
                  d="M7.439 31.343c-0.453 0-0.882-0.126-1.209-0.378-0.756-0.554-1.033-1.612-0.806-3.023l1.26-7.482-5.442-5.265-0.176-0.176c-0.025-0.025-0.025-0.025-0.050-0.050-0.857-0.932-1.184-1.864-0.932-2.696 0.277-0.882 1.209-1.486 2.62-1.713l7.508-1.108 3.326-6.802c0.63-1.285 1.486-1.99 2.419-1.99v0c0.932 0 1.789 0.705 2.419 1.965l3.376 6.777 7.508 1.058c1.411 0.202 2.343 0.806 2.645 1.688s-0.101 1.915-1.134 2.922l-5.417 5.316 1.31 7.457c0.252 1.411-0.025 2.469-0.781 3.023s-1.864 0.504-3.124-0.176l-6.727-3.502-6.701 3.552c-0.68 0.428-1.31 0.605-1.889 0.605zM1.569 14.841l5.543 5.366c0.050 0.050 0.076 0.151 0.076 0.227l-1.285 7.608c-0.202 1.209 0 2.091 0.605 2.519s1.512 0.353 2.595-0.227l6.827-3.603c0.076-0.050 0.151-0.050 0.227 0l6.827 3.577c1.083 0.554 1.99 0.63 2.595 0.202 0.579-0.428 0.806-1.335 0.579-2.545l-1.335-7.608c-0.025-0.076 0-0.176 0.076-0.227l5.517-5.391c0.882-0.857 1.234-1.713 1.008-2.393-0.227-0.705-1.008-1.184-2.217-1.335l-7.634-1.083c-0.076 0-0.151-0.076-0.202-0.126l-3.426-6.903c-0.554-1.083-1.234-1.688-1.965-1.688v0c-0.731 0-1.436 0.605-1.965 1.713l-3.401 6.928c-0.025 0.076-0.101 0.126-0.202 0.126l-1.889 0.277-5.719 0.857c-1.209 0.176-1.99 0.655-2.217 1.36-0.227 0.68 0.126 1.537 0.983 2.368z"></path>
            <path fill="#ffc52f" style="fill: var(--color1, #dcdcdc)"
                  d="M1.418 15.295c-0.050 0-0.126-0.025-0.176-0.076v0 0 0 0 0 0 0 0 0 0 0 0 0 0 0 0 0 0l-0.176-0.176c-0.101-0.101-0.101-0.252 0-0.353s0.252-0.101 0.353 0l0.176 0.176c0.101 0.101 0.101 0.252 0 0.353-0.050 0.050-0.126 0.076-0.176 0.076z"></path>
        </symbol>
    </defs>
</svg>
